<?xml version="1.0" encoding="UTF-8"?>
<svg width="88px" height="88px" viewBox="0 0 88 88" version="1.1" xmlns="http://www.w3.org/2000/svg" xmlns:xlink="http://www.w3.org/1999/xlink">
    <!-- Generator: Sketch 47.1 (45422) - http://www.bohemiancoding.com/sketch -->
    <title>Combined Shape</title>
    <desc>Created with Sketch.</desc>
    <defs></defs>
    <g id="主要页面" stroke="none" stroke-width="1" fill="none" fill-rule="evenodd">
        <g id="上传车辆信息" transform="translate(-550.000000, -782.000000)" fill="#D8D8D8">
            <g id="Group-8" transform="translate(495.000000, 727.000000)">
                <g id="Group-2" transform="translate(55.000000, 55.000000)">
                    <path d="M39.1111111,39.1111111 L4.88888889,39.1111111 L4.88888889,39.1111111 C2.18883011,39.1111111 -3.30661834e-16,41.2999412 0,44 C3.30661834e-16,46.7000588 2.18883011,48.8888889 4.88888889,48.8888889 L39.1111111,48.8888889 L39.1111111,83.1111111 C39.1111111,85.8111699 41.2999412,88 44,88 C46.7000588,88 48.8888889,85.8111699 48.8888889,83.1111111 L48.8888889,83.1111111 L48.8888889,48.8888889 L83.1111111,48.8888889 C85.8111699,48.8888889 88,46.7000588 88,44 C88,41.2999412 85.8111699,39.1111111 83.1111111,39.1111111 L83.1111111,39.1111111 L48.8888889,39.1111111 L48.8888889,4.88888889 L48.8888889,4.88888889 C48.8888889,2.18883011 46.7000588,2.19535505e-13 44,2.19370174e-13 C41.2999412,2.19204843e-13 39.1111111,2.18883011 39.1111111,4.88888889 L39.1111111,39.1111111 Z" id="Combined-Shape"></path>
                </g>
            </g>
        </g>
    </g>
</svg>