<?xml version="1.0" encoding="UTF-8"?>
<svg width="35px" height="26px" viewBox="0 0 35 26" version="1.1" xmlns="http://www.w3.org/2000/svg" xmlns:xlink="http://www.w3.org/1999/xlink">
    <!-- Generator: Sketch 47.1 (45422) - http://www.bohemiancoding.com/sketch -->
    <title>相机icon_</title>
    <desc>Created with Sketch.</desc>
    <defs></defs>
    <g id="主要页面" stroke="none" stroke-width="1" fill="none" fill-rule="evenodd">
        <g id="001登陆注册_005大陆居民身份认证_默认-" transform="translate(-137.000000, -555.000000)" fill="#FFFFFF">
            <g id="身份证" transform="translate(28.000000, 238.000000)">
                <g id="01" transform="translate(3.000000, 62.000000)">
                    <g id="lala" transform="translate(0.000000, 243.000000)">
                        <g id="文字" transform="translate(106.000000, 7.000000)">
                            <path d="M32.9,30.9999991 L2.1,30.9999991 C1.54357877,31.0005217 1.00973512,30.7845783 0.615908666,30.3996741 C0.222082215,30.0147698 0.000533225776,29.4924341 0,28.9475749 L0,11.1576664 C0.00177593907,10.0233266 0.941587987,9.10480616 2.1,9.10524227 L8.4,9.10524227 C10.5,9.10524227 11.2,5 12.6,5 L21.7,5 C23.7798851,5 24.5764368,9.10524227 26.6,9.10524227 L32.9,9.10524227 C34.058412,9.10480616 34.9982241,10.0233266 35,11.1576664 L35,28.9475749 C34.9994668,29.4924341 34.7779178,30.0147698 34.3840913,30.3996741 C33.9902649,30.7845783 33.4564212,31.0005217 32.9,30.9999991 L32.9,30.9999991 L32.9,30.9999991 Z M17.5,11.1576664 C12.8702683,11.1652786 9.12276435,14.8453707 9.12816671,19.3789033 C9.13356908,23.9124359 12.8898336,27.5839539 17.5195708,27.5809858 C22.149308,27.5780178 25.9006598,23.9016866 25.9,19.368151 C25.8955584,14.8295813 22.1348794,11.1537484 17.5,11.1576664 L17.5,11.1576664 Z M27.65,11.1576664 C27.0715798,11.1587538 26.603432,11.6185249 26.6040238,12.1849267 C26.6046157,12.7513285 27.0737235,13.2101605 27.6521447,13.2100887 C28.2305659,13.2100169 28.6995548,12.7510683 28.7,12.1846664 C28.6995558,11.6171887 28.2295198,11.1574488 27.65,11.1576664 L27.65,11.1576664 L27.65,11.1576664 Z M17.5,25.5281811 C14.0276324,25.5227441 11.2166402,22.7629946 11.2201182,19.3627776 C11.2235962,15.9625606 14.0402284,13.2083306 17.5126002,13.209705 C20.9849719,13.2110795 23.7993293,15.9675384 23.8,19.3677571 C23.7990401,21.0028167 23.1347013,22.570512 21.9531757,23.725861 C20.7716501,24.88121 19.1697556,25.5295398 17.5,25.5281811 L17.5,25.5281811 L17.5,25.5281811 Z M3.5,7.05242417 C3.50044412,6.67422952 3.81377979,6.36793374 4.2,6.36815147 L6.3,6.36815147 C6.68622021,6.36793374 6.99955588,6.67422952 7,7.05242417 L7,7.73709081 L3.5,7.73709081 L3.5,7.05242417 L3.5,7.05242417 L3.5,7.05242417 Z" id="相机icon_"></path>
                        </g>
                    </g>
                </g>
            </g>
        </g>
    </g>
</svg>